<?xml version="1.0" standalone="no"?>
<!DOCTYPE svg PUBLIC "-//W3C//DTD SVG 20010904//EN"
 "http://www.w3.org/TR/2001/REC-SVG-20010904/DTD/svg10.dtd">
<svg version="1.0" xmlns="http://www.w3.org/2000/svg"
 width="512.000000pt" height="512.000000pt" viewBox="0 0 512.000000 512.000000"
 preserveAspectRatio="xMidYMid meet">
<metadata>
Created by potrace 1.14, written by Peter Selinger 2001-2017
</metadata>
<g transform="translate(0.000000,512.000000) scale(0.100000,-0.100000)"
fill="#000000" stroke="none">
<path d="M2385 5113 c-473 -37 -919 -195 -1290 -456 -129 -91 -256 -199 -251
-213 13 -35 113 -170 203 -275 134 -156 177 -213 264 -349 80 -126 214 -397
248 -500 31 -97 60 -244 68 -343 l6 -88 23 22 c12 11 43 61 69 110 26 49 53
96 60 105 18 25 49 9 64 -34 7 -20 35 -84 62 -142 54 -118 93 -262 107 -393
16 -146 -17 -286 -121 -512 -59 -127 -91 -175 -204 -303 -46 -51 -83 -95 -83
-98 0 -10 79 10 215 54 131 43 147 46 250 46 104 1 117 -2 250 -46 253 -83
322 -84 539 -1 108 41 132 47 221 50 121 6 200 -9 357 -67 108 -40 117 -42
203 -38 75 4 114 13 240 55 83 29 171 54 197 58 60 8 184 -15 303 -55 227 -77
304 -77 517 -3 l77 27 25 81 c27 87 50 185 44 189 -1 2 -102 36 -223 76 -277
92 -433 159 -560 240 -187 119 -511 421 -620 578 -40 58 -54 71 -70 66 -59
-16 -149 -16 -209 0 l-64 18 -51 -52 c-143 -143 -318 -134 -543 30 l-67 49
-63 -10 c-211 -35 -356 80 -303 240 50 150 258 233 471 187 l60 -13 45 40 c24
22 78 56 119 76 72 35 79 36 186 36 l112 0 -13 25 c-74 144 -173 588 -254
1150 -11 74 -32 185 -46 247 -31 130 -13 117 -195 133 -107 9 -282 11 -375 3z
m-121 -521 c50 -23 121 -83 148 -127 l18 -30 99 0 c114 0 131 -8 191 -88 31
-41 40 -47 72 -47 65 0 115 -27 138 -74 51 -106 5 -205 -126 -271 -67 -34
-137 -41 -274 -25 l-110 12 -98 -63 c-122 -80 -187 -103 -260 -94 -57 7 -156
53 -215 101 -34 27 -40 28 -124 25 -78 -2 -92 0 -123 21 -50 33 -72 82 -66
140 12 117 104 201 261 238 l70 17 7 52 c27 183 221 288 392 213z"/>
<path d="M2987 5026 c29 -124 52 -243 63 -326 13 -110 29 -195 126 -677 45
-225 95 -366 206 -586 200 -396 300 -539 539 -772 287 -279 470 -395 799 -505
63 -21 166 -57 229 -80 63 -22 116 -39 118 -37 2 2 13 73 24 158 26 193 29
503 5 690 -52 424 -225 839 -511 1230 -56 76 -108 133 -246 269 -125 123 -140
136 -294 247 -55 40 -105 77 -111 82 -6 4 -37 23 -70 41 -32 18 -94 53 -136
76 -43 24 -82 44 -88 44 -6 0 -27 8 -48 19 -107 54 -392 144 -553 175 l-67 13
15 -61z"/>
<path d="M778 4399 c-44 -33 -219 -237 -299 -349 -455 -635 -597 -1459 -379
-2196 l32 -109 157 -52 c237 -80 280 -79 524 7 193 68 301 66 494 -9 56 -22
124 -44 152 -49 l50 -9 119 121 c140 142 166 179 238 334 70 148 91 210 99
297 7 78 -15 288 -40 370 -23 80 -102 269 -113 273 -5 1 -27 -21 -48 -50 -106
-148 -159 -208 -183 -208 -22 0 -23 2 -15 48 15 83 8 240 -15 332 -70 276
-129 394 -404 815 -26 39 -86 118 -135 177 -49 58 -113 145 -143 192 -30 47
-56 86 -59 86 -3 0 -17 -10 -32 -21z"/>
<path d="M4070 1679 c-30 -4 -112 -28 -181 -53 -226 -80 -289 -80 -524 5 -116
42 -124 43 -240 44 -103 0 -129 -3 -180 -23 -282 -111 -356 -114 -628 -26
-220 72 -258 71 -519 -12 -223 -71 -297 -69 -513 13 -115 44 -125 46 -230 47
-108 1 -112 0 -265 -53 -145 -51 -161 -55 -250 -55 -88 0 -105 4 -229 47 -74
26 -136 45 -138 43 -9 -9 101 -248 176 -383 92 -165 290 -412 467 -584 71 -68
237 -197 354 -276 210 -140 521 -275 767 -332 684 -161 1370 -58 1946 291 232
140 502 375 659 573 96 122 202 277 250 365 57 107 151 311 145 316 -2 3 -44
-7 -93 -21 -111 -32 -223 -42 -295 -25 -30 6 -108 29 -174 50 -66 21 -142 41
-170 45 -27 4 -57 8 -65 10 -8 1 -40 -1 -70 -6z"/>
</g>
</svg>
